HIERARCHY
ROOT Hip
{
  OFFSET 0.0 0.0 0.0
  CHANNELS 6 Xposition Yposition Zposition Xrotation Yrotation Zrotation
  JOINT LowerSpine
  {
    OFFSET 0.0 0.061367 -0.03653
    CHANNELS 3 Xrotation Yrotation Zrotation
    JOINT MiddleSpine
    {
      OFFSET 0.0 0.056002 0.002633
      CHANNELS 3 Xrotation Yrotation Zrotation
      JOINT Chest
      {
        OFFSET 0.0 0.069296 -0.013882
        CHANNELS 3 Xrotation Yrotation Zrotation
        JOINT Neck
        {
          OFFSET 0.0 0.156156 -0.002923
          CHANNELS 3 Xrotation Yrotation Zrotation
          JOINT Head
          {
            OFFSET 0.0 0.088183 0.023986
            CHANNELS 3 Xrotation Yrotation Zrotation
            End Site
            {
              OFFSET 1e-06 0.123215 0.003678
            }
          }
        }
        JOINT LClavicle
        {
          OFFSET 0.014189 0.150698 0.046467
          CHANNELS 3 Xrotation Yrotation Zrotation
          JOINT LShoulder
          {
            OFFSET 0.082893 0.021616 -0.034976
            CHANNELS 3 Xrotation Yrotation Zrotation
            JOINT LForearm
            {
              OFFSET 0.195645 -0.000695 -0.001695
              CHANNELS 3 Xrotation Yrotation Zrotation
              JOINT LHand
              {
                OFFSET 0.163209 0.000474 -0.000977
                CHANNELS 3 Xrotation Yrotation Zrotation
                End Site
                {
                  OFFSET 0.0 0.006864 0.0
                }
              }
            }
          }
        }
        JOINT RClavicle
        {
          OFFSET -0.014189 0.150698 0.046467
          CHANNELS 3 Xrotation Yrotation Zrotation
          JOINT RShoulder
          {
            OFFSET -0.082908 0.021619 -0.034982
            CHANNELS 3 Xrotation Yrotation Zrotation
            JOINT RForearm
            {
              OFFSET -0.195645 -0.000695 -0.001695
              CHANNELS 3 Xrotation Yrotation Zrotation
              JOINT RHand
              {
                OFFSET -0.163209 0.000474 -0.000977
                CHANNELS 3 Xrotation Yrotation Zrotation
                End Site
                {
                  OFFSET 0.0 0.006864 0.0
                }
              }
            }
          }
        }
      }
    }
  }
  JOINT RThigh
  {
    OFFSET -0.072558 0.02774 -0.005953
    CHANNELS 3 Xrotation Yrotation Zrotation
    JOINT RShin
    {
      OFFSET -0.005253 -0.285537 0.0
      CHANNELS 3 Xrotation Yrotation Zrotation
      JOINT RFoot
      {
        OFFSET 0.0 -0.28038 0.0
        CHANNELS 3 Xrotation Yrotation Zrotation
        JOINT RToe
        {
          OFFSET 0.0 -0.030816 0.064441
          CHANNELS 3 Xrotation Yrotation Zrotation
          End Site
          {
            OFFSET 0.0 0.0 0.043231
          }
        }
      }
    }
  }
  JOINT LThigh
  {
    OFFSET 0.072557 0.027741 -0.005953
    CHANNELS 3 Xrotation Yrotation Zrotation
    JOINT LShin
    {
      OFFSET 0.005253 -0.285539 0.0
      CHANNELS 3 Xrotation Yrotation Zrotation
      JOINT LFoot
      {
        OFFSET 0.0 -0.28038 0.0
        CHANNELS 3 Xrotation Yrotation Zrotation
        JOINT LToe
        {
          OFFSET 0.0 -0.030816 0.064441
          CHANNELS 3 Xrotation Yrotation Zrotation
          End Site
          {
            OFFSET 0.0 0.0 0.043231
          }
        }
      }
    }
  }
}
MOTION
Frames: 7
Frame Time: 0.03333333333333333
0.010959 0.586229 -0.00906 4.383574 8.654073 -2.896072 -1.036848 -0.160762 0.044607 -0.61095 1.068947 0.432068 -5.576857 2.274681 0.417023 -1.787657 0.059011 0.121078 0.016556 -0.086819 -0.022092 0.358945 -0.030061 -13.821481 23.175655 -27.464329 -54.695602 12.069442 -23.29463 -1.228612 0.125027 0.15734 -0.125772 0.121543 0.335595 13.944918 16.982037 32.102547 55.617245 7.697275 18.004267 2.405858 0.036587 -0.165007 -0.010028 -5.173664 -2.89169 1.362733 15.014764 -1.813395 0.41893 -0.880342 1.101281 0.195511 -0.235559 0.278914 0.089191 -3.111407 4.682992 -0.885723 8.737461 2.59563 -1.927445 -1.02649 -1.019173 -0.164986 0.001674 -0.12227 -0.048055 
-0.001255 0.582145 -0.01699 5.022912 11.825324 -1.853414 -0.738153 -0.094408 0.283264 -1.021712 0.330994 0.668841 -6.247376 1.805228 -0.315913 -0.970623 0.006135 0.088787 0.016778 -0.069411 0.00105 -0.044564 -0.029568 -13.3493 25.04067 -26.474745 -52.986912 13.668919 -22.962421 -1.23492 0.055413 0.075382 -0.064381 0.02561 1.245333 13.519341 18.840319 31.653019 52.630138 9.504779 21.915787 3.155215 -0.07074 -0.089096 -0.010371 -7.918113 -2.028319 1.014808 20.870152 -1.770022 0.153663 -0.149062 0.685365 0.259668 -0.302536 0.091657 0.087644 -4.725316 5.321642 -1.855785 7.086603 3.216055 -1.5268 -0.636019 -1.377048 -0.395307 0.045261 -0.105579 -0.062631 
-0.004433 0.575951 -0.007676 6.388204 13.275269 -1.111519 -0.625056 -0.180224 0.20059 -1.151214 0.33986 0.870042 -7.591784 1.022832 0.216399 -0.801326 0.071833 -0.039293 0.015252 -0.033832 0.012893 0.206784 0.097226 -13.528288 26.07649 -26.592648 -53.194241 14.787549 -24.309469 -2.005527 0.038584 0.062828 -0.048955 0.156523 1.084867 13.321619 20.02828 31.71434 52.744457 10.164925 23.268715 4.236154 -0.016422 -0.107993 -0.003589 -8.191335 -2.590826 0.700319 19.584879 -2.287887 0.43834 -0.622245 0.640139 0.133266 -0.255913 0.124125 0.080387 -7.302206 4.930907 -2.569649 7.681216 3.857748 -1.0714 -0.576844 -1.106483 -0.287358 0.032399 -0.064763 -0.038047 
0.00055 0.571044 -0.004772 6.952515 13.044541 -0.828039 -0.582285 -0.193912 0.192533 -1.191578 0.407331 0.907652 -8.09052 0.539934 0.613455 -0.699856 0.059581 -0.088735 0.010033 -0.031343 0.019892 0.306081 0.168049 -13.604776 26.200897 -26.701546 -53.712559 15.034822 -25.584772 -2.612584 0.032003 0.059497 -0.044072 0.205455 0.997136 13.221788 20.30105 31.61166 53.164394 10.206937 24.842802 4.978209 -0.006925 -0.093223 0.00037 -8.005681 -3.307827 0.496124 18.969578 -2.709558 0.618875 -0.730729 0.607613 0.084839 -0.249419 0.117354 0.071831 -8.404725 4.595 -3.259473 7.536873 3.90067 -0.825993 -0.524801 -1.070477 -0.253501 0.026335 -0.045846 -0.031015 
0.000352 0.568549 -0.001019 7.441256 12.840665 -0.502086 -0.504127 -0.196352 0.199152 -1.243418 0.440979 0.912766 -8.558357 0.418416 0.689259 -0.588795 0.062525 -0.096894 0.00831 -0.043281 0.020307 0.290061 0.157915 -13.504169 26.043514 -27.090502 -53.948982 15.11445 -25.854956 -2.887821 0.029115 0.057392 -0.040047 0.186716 0.994308 13.203671 19.788012 31.883821 53.748135 9.816295 24.028391 5.262362 -0.013839 -0.076751 3.6e-05 -8.703719 -3.470277 0.396451 19.877407 -2.861726 0.706123 -0.823529 0.509922 0.026441 -0.259829 0.103762 0.069154 -9.583505 4.619402 -3.629877 7.647508 3.835187 -0.81996 -0.580682 -1.059967 -0.247411 0.02182 -0.033869 -0.029985 
-0.000314 0.566075 0.002481 7.689053 12.950974 -0.128299 -0.434256 -0.196792 0.204881 -1.264709 0.458167 0.897675 -8.831705 0.569718 0.684869 -0.499478 0.08207 -0.083472 0.006973 -0.051174 0.018944 0.248584 0.137787 -13.375065 25.936466 -27.409054 -54.152718 15.03104 -25.458876 -3.00941 0.027261 0.054554 -0.036225 0.145614 1.026859 13.254863 18.816065 32.507706 54.412933 9.045755 21.843191 5.302067 -0.017586 -0.067044 -0.000695 -9.432088 -3.166534 0.388131 20.913343 -2.720421 0.697744 -1.030374 0.405848 -0.03022 -0.27081 0.091738 0.067755 -10.458635 4.756828 -3.800642 7.757978 3.773633 -0.874737 -0.676674 -1.046292 -0.261553 0.017678 -0.026327 -0.029362 
-0.001747 0.564555 0.004865 7.850913 13.603613 0.149239 -0.397367 -0.185524 0.22545 -1.270407 0.488345 0.890487 -8.946405 0.823366 0.731464 -0.44924 0.100037 -0.0767 0.004991 -0.057339 0.017112 0.21284 0.118295 -13.221588 26.062944 -27.417305 -54.32975 14.925493 -25.344242 -3.095114 0.025752 0.051946 -0.033411 0.108511 1.069984 13.326949 17.901743 32.971756 54.897999 8.248617 19.796886 5.326733 -0.016932 -0.062972 -0.000998 -9.924913 -2.78383 0.444563 21.510418 -2.502702 0.626658 -1.272354 0.338115 -0.068218 -0.281275 0.082699 0.066493 -11.26859 4.937213 -3.831223 7.927208 3.796988 -0.94378 -0.722773 -1.044776 -0.287633 0.014534 -0.023605 -0.029817 
